<svg width="1080" height="720" viewBox="0 0 1080 720" fill="none" xmlns="http://www.w3.org/2000/svg">
  <rect width="1080" height="720" fill="#F8FBFF"/>
  <rect y="438" width="1080" height="282" fill="#DCEEFF"/>
  <path d="M110 438H970L880 250H200L110 438Z" fill="#1A3A8F"/>
  <path d="M210 438H870L812 300H268L210 438Z" fill="#29ABE2"/>
  <rect x="260" y="356" width="560" height="82" fill="#EAF5FF"/>
  <rect x="312" y="384" width="74" height="54" fill="#1E6CB5" opacity="0.85"/>
  <rect x="432" y="384" width="74" height="54" fill="#1E6CB5" opacity="0.85"/>
  <rect x="552" y="384" width="74" height="54" fill="#1E6CB5" opacity="0.85"/>
  <rect x="672" y="384" width="74" height="54" fill="#1E6CB5" opacity="0.85"/>
  <path d="M192 250L540 94L888 250H192Z" fill="#102E73"/>
  <rect x="500" y="188" width="80" height="80" rx="40" fill="#EAF5FF"/>
  <path d="M522 230L538 246L562 212" stroke="#10B981" stroke-width="10" stroke-linecap="round" stroke-linejoin="round"/>
  <rect x="216" y="438" width="648" height="36" fill="#102E73"/>
  <circle cx="290" cy="566" r="54" fill="#1E6CB5"/>
  <circle cx="290" cy="514" r="24" fill="#FFE3C2"/>
  <path d="M214 680C226 620 248 590 290 590C332 590 354 620 366 680H214Z" fill="#29ABE2"/>
  <circle cx="540" cy="566" r="54" fill="#10B981"/>
  <circle cx="540" cy="514" r="24" fill="#FFE3C2"/>
  <path d="M464 680C476 620 498 590 540 590C582 590 604 620 616 680H464Z" fill="#1A3A8F"/>
  <circle cx="790" cy="566" r="54" fill="#8B5CF6"/>
  <circle cx="790" cy="514" r="24" fill="#FFE3C2"/>
  <path d="M714 680C726 620 748 590 790 590C832 590 854 620 866 680H714Z" fill="#29ABE2"/>
  <circle cx="148" cy="150" r="86" fill="#29ABE2" opacity="0.16"/>
  <circle cx="936" cy="128" r="106" fill="#1A3A8F" opacity="0.12"/>
</svg>
