<svg width="1080" height="720" viewBox="0 0 1080 720" fill="none" xmlns="http://www.w3.org/2000/svg">
  <rect width="1080" height="720" fill="#EAF4FF"/>
  <rect x="0" y="0" width="1080" height="720" fill="url(#bg)"/>
  <circle cx="880" cy="130" r="160" fill="#29ABE2" opacity="0.16"/>
  <circle cx="190" cy="590" r="220" fill="#1A3A8F" opacity="0.12"/>
  <rect x="112" y="92" width="856" height="536" rx="36" fill="white" opacity="0.92"/>
  <rect x="158" y="142" width="520" height="334" rx="24" fill="#F8FBFF" stroke="#D9E8FF" stroke-width="4"/>
  <rect x="196" y="190" width="440" height="44" rx="12" fill="#DCEBFF"/>
  <rect x="196" y="258" width="330" height="22" rx="11" fill="#BBD8FA"/>
  <rect x="196" y="300" width="390" height="22" rx="11" fill="#BBD8FA"/>
  <rect x="196" y="342" width="270" height="22" rx="11" fill="#BBD8FA"/>
  <path d="M196 424H286L314 368L356 466L392 286L438 424H636" stroke="#1E6CB5" stroke-width="12" stroke-linecap="round" stroke-linejoin="round"/>
  <rect x="720" y="164" width="190" height="320" rx="32" fill="#173D8F"/>
  <rect x="744" y="206" width="142" height="220" rx="18" fill="#29ABE2"/>
  <circle cx="815" cy="456" r="16" fill="#EAF4FF"/>
  <rect x="694" y="504" width="244" height="64" rx="20" fill="#F2F8FF" stroke="#CFE3FF" stroke-width="3"/>
  <circle cx="734" cy="536" r="18" fill="#10B981"/>
  <path d="M724 536L732 544L746 526" stroke="white" stroke-width="5" stroke-linecap="round" stroke-linejoin="round"/>
  <rect x="768" y="520" width="132" height="14" rx="7" fill="#1A3A8F"/>
  <rect x="768" y="544" width="92" height="10" rx="5" fill="#78B9EA"/>
  <defs>
    <linearGradient id="bg" x1="0" y1="0" x2="1080" y2="720" gradientUnits="userSpaceOnUse">
      <stop stop-color="#F8FBFF"/>
      <stop offset="0.55" stop-color="#E9F4FF"/>
      <stop offset="1" stop-color="#C9E4FF"/>
    </linearGradient>
  </defs>
</svg>
